<svg width="34" height="33" viewBox="0 0 34 33" fill="none" xmlns="http://www.w3.org/2000/svg">
<path d="M14.0831 24.75C16.5828 24.7495 19.0106 23.9325 20.9797 22.429L27.1707 28.4735L29.1621 26.5293L22.9711 20.4847C24.5118 18.562 25.3491 16.1912 25.3497 13.75C25.3497 7.68488 20.2952 2.75 14.0831 2.75C7.87091 2.75 2.81641 7.68488 2.81641 13.75C2.81641 19.8151 7.87091 24.75 14.0831 24.75ZM14.0831 5.5C18.7432 5.5 22.5331 9.20012 22.5331 13.75C22.5331 18.2999 18.7432 22 14.0831 22C9.4229 22 5.63307 18.2999 5.63307 13.75C5.63307 9.20012 9.4229 5.5 14.0831 5.5Z" fill="white"/>
<path d="M16.072 11.8058C16.6058 12.3283 16.9001 13.0185 16.9001 13.75H19.7168C19.718 13.0273 19.5726 12.3116 19.2888 11.6442C19.005 10.9767 18.5885 10.3708 18.0634 9.8615C15.9312 7.7825 12.2343 7.7825 10.1035 9.8615L12.0921 11.8085C13.1624 10.7663 15.0073 10.769 16.072 11.8058Z" fill="white"/>
</svg>
