<svg width="35" height="33" viewBox="0 0 35 33" fill="none" xmlns="http://www.w3.org/2000/svg">
<path d="M7.13711 6.1875H32.4871L29.3184 19.5938H10.3059M29.3184 23.7188H11.3621L6.08086 2.0625H2.91211" stroke="white" stroke-width="2" stroke-linecap="round" stroke-linejoin="round"/>
<path d="M27.2062 29.9062C28.373 29.9062 29.3187 28.9828 29.3187 27.8438C29.3187 26.7047 28.373 25.7812 27.2062 25.7812C26.0395 25.7812 25.0938 26.7047 25.0938 27.8438C25.0938 28.9828 26.0395 29.9062 27.2062 29.9062Z" stroke="white" stroke-width="2" stroke-linecap="round" stroke-linejoin="round"/>
<path d="M13.4748 29.9062C14.6415 29.9062 15.5873 28.9828 15.5873 27.8438C15.5873 26.7047 14.6415 25.7812 13.4748 25.7812C12.3081 25.7812 11.3623 26.7047 11.3623 27.8438C11.3623 28.9828 12.3081 29.9062 13.4748 29.9062Z" stroke="white" stroke-width="2" stroke-linecap="round" stroke-linejoin="round"/>
</svg>
