<svg width="35" height="33" viewBox="0 0 35 33" fill="none" xmlns="http://www.w3.org/2000/svg">
<path d="M17.4992 16.5C19.18 16.5 20.792 15.8481 21.9805 14.6877C23.169 13.5273 23.8367 11.9535 23.8367 10.3125C23.8367 8.67147 23.169 7.09766 21.9805 5.93728C20.792 4.7769 19.18 4.125 17.4992 4.125C15.8184 4.125 14.2064 4.7769 13.0179 5.93728C11.8294 7.09766 11.1617 8.67147 11.1617 10.3125C11.1617 11.9535 11.8294 13.5273 13.0179 14.6877C14.2064 15.8481 15.8184 16.5 17.4992 16.5V16.5ZM17.4992 18.5625C15.2581 18.5625 13.1088 17.6933 11.5242 16.1461C9.93948 14.599 9.04922 12.5005 9.04922 10.3125C9.04922 8.12446 9.93948 6.02604 11.5242 4.47887C13.1088 2.93169 15.2581 2.0625 17.4992 2.0625C19.7403 2.0625 21.8896 2.93169 23.4743 4.47887C25.059 6.02604 25.9492 8.12446 25.9492 10.3125C25.9492 12.5005 25.059 14.599 23.4743 16.1461C21.8896 17.6933 19.7403 18.5625 17.4992 18.5625ZM28.0617 28.875V25.7812C28.0617 24.9607 27.7279 24.1738 27.1336 23.5936C26.5394 23.0134 25.7334 22.6875 24.893 22.6875H10.1055C9.26506 22.6875 8.45908 23.0134 7.86482 23.5936C7.27057 24.1738 6.93672 24.9607 6.93672 25.7812V28.875C6.93672 29.1485 6.82544 29.4108 6.62735 29.6042C6.42926 29.7976 6.1606 29.9062 5.88047 29.9062C5.60033 29.9062 5.33167 29.7976 5.13359 29.6042C4.9355 29.4108 4.82422 29.1485 4.82422 28.875V25.7812C4.82422 24.4137 5.38063 23.1022 6.37106 22.1352C7.36149 21.1682 8.70479 20.625 10.1055 20.625H24.893C26.2936 20.625 27.6369 21.1682 28.6274 22.1352C29.6178 23.1022 30.1742 24.4137 30.1742 25.7812V28.875C30.1742 29.1485 30.0629 29.4108 29.8649 29.6042C29.6668 29.7976 29.3981 29.9062 29.118 29.9062C28.8378 29.9062 28.5692 29.7976 28.3711 29.6042C28.173 29.4108 28.0617 29.1485 28.0617 28.875Z" fill="white"/>
</svg>
